<?xml version="1.0" encoding="utf-8"?>
<!-- Generator: Adobe Illustrator 16.0.3, SVG Export Plug-In . SVG Version: 6.00 Build 0)  -->
<!DOCTYPE svg PUBLIC "-//W3C//DTD SVG 1.1//EN" "http://www.w3.org/Graphics/SVG/1.1/DTD/svg11.dtd">
<svg version="1.1" id="Layer_1" xmlns="http://www.w3.org/2000/svg" xmlns:xlink="http://www.w3.org/1999/xlink" x="0px" y="0px"
	 width="1280px" height="800px" viewBox="0 0 1280 800" enable-background="new 0 0 1280 800" xml:space="preserve">
<line fill="none" stroke="#FBB03B" stroke-width="6" stroke-miterlimit="10" x1="0" y1="93" x2="1280" y2="93"/>
<line fill="none" stroke="#133070" stroke-width="6" stroke-miterlimit="10" x1="0" y1="108" x2="1280" y2="108"/>
<line fill="none" stroke="#FBB03B" stroke-width="6" stroke-miterlimit="10" x1="0" y1="126" x2="1280" y2="126"/>
<line fill="none" stroke="#133070" stroke-width="6" stroke-miterlimit="10" x1="0" y1="141" x2="1280" y2="141"/>
<line fill="none" stroke="#FBB03B" stroke-width="6" stroke-miterlimit="10" x1="0" y1="219" x2="1280" y2="219"/>
<line fill="none" stroke="#133070" stroke-width="6" stroke-miterlimit="10" x1="-1" y1="234" x2="1279" y2="234"/>
<line fill="none" stroke="#FBB03B" stroke-width="6" stroke-miterlimit="10" x1="0" y1="252" x2="1280" y2="252"/>
<line fill="none" stroke="#133070" stroke-width="6" stroke-miterlimit="10" x1="0" y1="267" x2="1280" y2="267"/>
<line fill="none" stroke="#FBB03B" stroke-width="6" stroke-miterlimit="10" x1="0" y1="345" x2="1280" y2="345"/>
<line fill="none" stroke="#133070" stroke-width="6" stroke-miterlimit="10" x1="0" y1="360" x2="1280" y2="360"/>
<line fill="none" stroke="#FBB03B" stroke-width="6" stroke-miterlimit="10" x1="0" y1="378" x2="1280" y2="378"/>
<line fill="none" stroke="#133070" stroke-width="6" stroke-miterlimit="10" x1="0" y1="393" x2="1280" y2="393"/>
<line fill="none" stroke="#FBB03B" stroke-width="6" stroke-miterlimit="10" x1="0" y1="471" x2="1280" y2="471"/>
<line fill="none" stroke="#133070" stroke-width="6" stroke-miterlimit="10" x1="0" y1="486" x2="1280" y2="486"/>
<line fill="none" stroke="#FBB03B" stroke-width="6" stroke-miterlimit="10" x1="0" y1="504" x2="1280" y2="504"/>
<line fill="none" stroke="#133070" stroke-width="6" stroke-miterlimit="10" x1="0" y1="519" x2="1280" y2="519"/>
<line fill="none" stroke="#FBB03B" stroke-width="6" stroke-miterlimit="10" x1="0" y1="597" x2="1280" y2="597"/>
<line fill="none" stroke="#133070" stroke-width="6" stroke-miterlimit="10" x1="0" y1="612" x2="1280" y2="612"/>
<line fill="none" stroke="#FBB03B" stroke-width="6" stroke-miterlimit="10" x1="0" y1="630" x2="1280" y2="630"/>
<line fill="none" stroke="#133070" stroke-width="6" stroke-miterlimit="10" x1="0" y1="645" x2="1280" y2="645"/>
<line fill="none" stroke="#FBB03B" stroke-width="6" stroke-miterlimit="10" x1="0" y1="723" x2="1280" y2="723"/>
<line fill="none" stroke="#133070" stroke-width="6" stroke-miterlimit="10" x1="0" y1="738" x2="1280" y2="738"/>
<line fill="none" stroke="#FBB03B" stroke-width="6" stroke-miterlimit="10" x1="0" y1="756" x2="1280" y2="756"/>
<line fill="none" stroke="#133070" stroke-width="6" stroke-miterlimit="10" x1="0" y1="771" x2="1280" y2="771"/>
</svg>
