<?xml version="1.0" encoding="utf-8"?>
<!-- Generator: Adobe Illustrator 16.0.3, SVG Export Plug-In . SVG Version: 6.00 Build 0)  -->
<!DOCTYPE svg PUBLIC "-//W3C//DTD SVG 1.1//EN" "http://www.w3.org/Graphics/SVG/1.1/DTD/svg11.dtd">
<svg version="1.1" id="Layer_1" xmlns="http://www.w3.org/2000/svg" xmlns:xlink="http://www.w3.org/1999/xlink" x="0px" y="0px"
	 width="1280px" height="800px" viewBox="0 0 1280 800" enable-background="new 0 0 1280 800" xml:space="preserve">
<line fill="none" stroke="#FBB03B" stroke-width="6" stroke-miterlimit="10" x1="0" y1="3" x2="1280" y2="3"/>
<line fill="none" stroke="#133070" stroke-width="6" stroke-miterlimit="10" x1="0" y1="18" x2="1280" y2="18"/>
<line fill="none" stroke="#FBB03B" stroke-width="6" stroke-miterlimit="10" x1="0" y1="36" x2="1280" y2="36"/>
<line fill="none" stroke="#133070" stroke-width="6" stroke-miterlimit="10" x1="0" y1="51" x2="1280" y2="51"/>
<line fill="none" stroke="#FBB03B" stroke-width="6" stroke-miterlimit="10" x1="0" y1="137" x2="1280" y2="137"/>
<line fill="none" stroke="#133070" stroke-width="6" stroke-miterlimit="10" x1="0" y1="152" x2="1280" y2="152"/>
<line fill="none" stroke="#FBB03B" stroke-width="6" stroke-miterlimit="10" x1="0" y1="170" x2="1280" y2="170"/>
<line fill="none" stroke="#133070" stroke-width="6" stroke-miterlimit="10" x1="0" y1="185" x2="1280" y2="185"/>
<line fill="none" stroke="#FBB03B" stroke-width="6" stroke-miterlimit="10" x1="0" y1="272" x2="1280" y2="272"/>
<line fill="none" stroke="#133070" stroke-width="6" stroke-miterlimit="10" x1="0" y1="287" x2="1280" y2="287"/>
<line fill="none" stroke="#FBB03B" stroke-width="6" stroke-miterlimit="10" x1="0" y1="305" x2="1280" y2="305"/>
<line fill="none" stroke="#133070" stroke-width="6" stroke-miterlimit="10" x1="0" y1="320" x2="1280" y2="320"/>
<line fill="none" stroke="#FBB03B" stroke-width="6" stroke-miterlimit="10" x1="0" y1="408" x2="1280" y2="408"/>
<line fill="none" stroke="#133070" stroke-width="6" stroke-miterlimit="10" x1="0" y1="423" x2="1280" y2="423"/>
<line fill="none" stroke="#FBB03B" stroke-width="6" stroke-miterlimit="10" x1="0" y1="441" x2="1280" y2="441"/>
<line fill="none" stroke="#133070" stroke-width="6" stroke-miterlimit="10" x1="0" y1="456" x2="1280" y2="456"/>
<line fill="none" stroke="#FBB03B" stroke-width="6" stroke-miterlimit="10" x1="0" y1="542" x2="1280" y2="542"/>
<line fill="none" stroke="#133070" stroke-width="6" stroke-miterlimit="10" x1="0" y1="557" x2="1280" y2="557"/>
<line fill="none" stroke="#FBB03B" stroke-width="6" stroke-miterlimit="10" x1="0" y1="575" x2="1280" y2="575"/>
<line fill="none" stroke="#133070" stroke-width="6" stroke-miterlimit="10" x1="0" y1="590" x2="1280" y2="590"/>
<line fill="none" stroke="#FBB03B" stroke-width="6" stroke-miterlimit="10" x1="0" y1="678" x2="1280" y2="678"/>
<line fill="none" stroke="#133070" stroke-width="6" stroke-miterlimit="10" x1="0" y1="693" x2="1280" y2="693"/>
<line fill="none" stroke="#FBB03B" stroke-width="6" stroke-miterlimit="10" x1="0" y1="711" x2="1280" y2="711"/>
<line fill="none" stroke="#133070" stroke-width="6" stroke-miterlimit="10" x1="0" y1="726" x2="1280" y2="726"/>
</svg>
